<svg
	xmlns="http://www.w3.org/2000/svg" viewBox="4 2 24 28"
	xmlns:v="https://vecta.io/nano">
	<path d="M27.695 23c.188-.338.305-.719.305-1.061V10.061c0-.342-.117-.723-.305-1.061L16 16l11.695 7z"/>
	<path d="M17.04 29.743l9.922-5.939c.286-.171.546-.466.734-.805L16 16 4.306 23c.188.338.448.634.734.805l9.922 5.939c.572.342 1.507.342 2.078 0z"/>
	<path d="M27.695 9c-.188-.338-.448-.634-.734-.805l-9.922-5.939c-.572-.342-1.507-.342-2.078 0L5.039 8.195C4.468 8.537 4 9.377 4 10.061v11.877c0 .342.117.723.305 1.061L16 16l11.695-7z"/>
	<g fill="#d8cdbb">
		<path d="M16.039 24C11.606 24 8 20.411 8 16s3.606-8 8.038-8c2.807 0 5.429 1.476 6.881 3.862l-3.442 2.065A4.04 4.04 0 0 0 16.039 12c-2.216 0-4.019 1.794-4.019 4s1.803 4 4.019 4a4.04 4.04 0 0 0 3.432-1.917l3.45 2.053C21.469 22.523 18.847 24 16.039 24z"/>
		<path fill-rule="evenodd" d="M25 13v.997h-2V13h-1v.997h-1V15h1v1.995h-1V18h1v1h1v-1h2v1h1v-1h1v-1h-1v-2h1v-1.003h-1V13h-1zm0 4v-2h-2v1.995L25 17z"/>
	</g>
</svg>